<?xml version="1.0" encoding="UTF-8"?> <svg xmlns="http://www.w3.org/2000/svg" width="423" height="64" viewBox="0 0 423 64" fill="none"><g clip-path="url(#clip0_3_209)"><path fill-rule="evenodd" clip-rule="evenodd" d="M236.04 12.8L227.01 29.4L237.37 47.71H227.73L223.38 39.6C222.95 38.78 222.57 37.97 222.23 37.17C221.8 38.52 221.44 39.51 221.16 40.14L216.97 47.71H208.02L218.33 29.4L208.82 12.8H218.33L222.24 20.01C222.53 20.78 222.77 21.54 222.96 22.29C223.18 21.61 223.54 20.61 224.03 19.3L227.38 12.8H236.05H236.04Z" fill="white"></path><path fill-rule="evenodd" clip-rule="evenodd" d="M239.47 12.8H266.71V19.3H257.4V47.71H248.73V19.3H239.47V12.8Z" fill="white"></path><path d="M347.76 12.8H339.09V47.71H347.76V12.8Z" fill="white"></path><path fill-rule="evenodd" clip-rule="evenodd" d="M371.4 18.25C370.5 18.25 369.68 18.5 368.94 18.99C368.21 19.48 367.64 20.16 367.25 21.01C366.4 22.92 365.97 25.97 365.97 30.17C365.97 34.37 366.24 37.13 366.79 38.92C367.1 39.93 367.68 40.75 368.53 41.4C369.3 41.98 370.2 42.27 371.24 42.27C373.56 42.27 375.08 41.08 375.79 38.69C376.39 36.66 376.68 33.8 376.69 30.1C376.69 25.94 376.38 23.02 375.77 21.35C375.02 19.29 373.56 18.26 371.4 18.26V18.25ZM371.79 12.11C376.8 12.11 380.57 13.99 383.09 17.74C385.24 20.91 386.31 24.99 386.31 29.96C386.31 35.42 385.13 39.85 382.78 43.26C380.41 46.69 376.51 48.4 371.07 48.4C366.38 48.4 362.83 46.87 360.43 43.82C357.79 40.48 356.46 36.12 356.46 30.75C356.46 25.38 357.5 21.22 359.58 17.96C362.09 14.06 366.15 12.1 371.78 12.1L371.79 12.11Z" fill="white"></path><path d="M181.08 12.8H202.49V19.3H188.22V26.41H199.98V32.91H188.22V41.22H203.41V47.72H181.07C180.23 47.72 179.56 47.05 179.56 46.21V14.33C179.56 13.49 180.24 12.81 181.09 12.81L181.08 12.8Z" fill="white"></path><path fill-rule="evenodd" clip-rule="evenodd" d="M274.37 12.8H295.43V19.3H281.16V26.41H292.92V32.91H281.16V41.22H296.35V47.72H274.38C273.33 47.72 272.49 46.87 272.49 45.82V14.71C272.49 13.66 273.31 12.81 274.37 12.81V12.8Z" fill="white"></path><path fill-rule="evenodd" clip-rule="evenodd" d="M313.53 26.41H316.68C319.78 26.41 321.33 25.23 321.33 22.85C321.33 21.16 320.64 20.1 319.26 19.65C318.52 19.41 317.49 19.29 316.16 19.29H313.53V26.41ZM304.86 14.71C304.86 13.66 305.69 12.81 306.74 12.81H316.65C319.29 12.81 321.39 12.97 322.94 13.29C325.28 13.77 327.12 14.93 328.46 16.77C329.67 18.39 330.28 20.31 330.28 22.53C330.28 25.09 329.62 27.18 328.31 28.82C327.37 30 325.98 30.87 324.14 31.43L331.76 47.72H322.32L315.72 32.91L315.39 33.01H313.73L313.53 32.91V47.72H304.86V14.71Z" fill="white"></path><path fill-rule="evenodd" clip-rule="evenodd" d="M403.18 26.41H406.33C409.43 26.41 410.98 25.23 410.98 22.85C410.98 21.16 410.29 20.1 408.91 19.65C408.18 19.41 407.14 19.29 405.82 19.29H403.19V26.4L403.18 26.41ZM394.51 14.71C394.51 13.66 395.34 12.81 396.39 12.81H406.3C408.94 12.81 411.04 12.97 412.59 13.29C414.93 13.77 416.77 14.93 418.12 16.77C419.33 18.39 419.93 20.31 419.93 22.53C419.93 25.09 419.27 27.18 417.96 28.82C417.02 30 415.63 30.87 413.79 31.43L421.41 47.72H411.97L405.37 32.91L405.04 33.01H403.38L403.18 32.91V47.72H394.51V14.71Z" fill="white"></path><path fill-rule="evenodd" clip-rule="evenodd" d="M89.09 50.79H113.33C116.86 50.79 119.59 45.02 119.59 41.62C119.59 38.22 116.83 32.59 113.42 32.59H89.08V26.41H113.51C116.51 26.41 118.82 20.98 118.82 18.09C118.82 15.2 116.48 9.8 113.6 9.8H89.08V0.589996H0V60.07H89.09V50.79ZM87.09 58.07V48.79H113.33C115.766 48.79 117.59 43.9049 117.59 41.62C117.59 39.382 115.784 34.59 113.42 34.59H87.08V24.41H113.509C115.373 24.41 116.82 19.9075 116.82 18.09C116.82 16.2723 115.343 11.8 113.6 11.8H87.08V2.59H2V58.07H87.09Z" fill="white"></path><path d="M84.08 47.8H108.32C111.85 47.8 114.58 45.01 114.58 41.63C114.58 38.25 111.82 35.6 108.41 35.6H84.07V23.42C100.357 23.42 108.5 23.42 108.5 23.42C111.5 23.42 113.81 20.95 113.81 18.1C113.81 15.25 111.47 12.81 108.59 12.81H84.07V0.589996H108.59C118.26 0.589996 126.09 8.43 126.09 18.09C126.09 22.36 124.56 26.27 122.03 29.3C123.89 31.3 125.3 33.72 126.1 36.41C126.9 33.72 128.31 31.3 130.17 29.3C127.63 26.27 126.11 22.36 126.11 18.09C126.11 8.42 133.95 0.589996 143.61 0.589996H168.13V12.8H143.61C140.73 12.8 138.39 15.2 138.39 18.09C138.39 20.98 140.7 23.41 143.7 23.41H168.13V35.59C151.903 35.59 143.79 35.59 143.79 35.59C140.38 35.59 137.62 38.22 137.62 41.62C137.62 45.02 140.35 47.79 143.88 47.79H168.12V60.07H143.88C135.46 60.07 128.36 54.52 126.09 46.87C123.82 54.52 116.72 60.07 108.3 60.07H84.06V47.79L84.08 47.8Z" fill="white"></path><path fill-rule="evenodd" clip-rule="evenodd" d="M325.22 58.23H327.66C328.18 58.23 328.59 58.18 328.88 58.07C329.17 57.96 329.39 57.79 329.55 57.55C329.7 57.31 329.78 57.05 329.78 56.78C329.78 56.37 329.63 56.04 329.34 55.78C329.05 55.52 328.58 55.39 327.94 55.39H325.22V58.23ZM324.08 63.03V54.44H327.89C328.66 54.44 329.24 54.52 329.64 54.67C330.04 54.82 330.36 55.09 330.6 55.48C330.84 55.87 330.96 56.3 330.96 56.77C330.96 57.38 330.76 57.9 330.37 58.31C329.98 58.73 329.36 59 328.54 59.11C328.84 59.25 329.07 59.4 329.23 59.54C329.56 59.85 329.88 60.23 330.17 60.68L331.66 63.02H330.23L329.09 61.23C328.76 60.71 328.49 60.32 328.27 60.05C328.05 59.78 327.86 59.59 327.69 59.48C327.52 59.37 327.35 59.29 327.17 59.25C327.04 59.22 326.83 59.21 326.54 59.21H325.22V63.02H324.08V63.03Z" fill="white"></path><path d="M334.07 54.44H332.93V63.03H334.07V54.44Z" fill="white"></path><path fill-rule="evenodd" clip-rule="evenodd" d="M336.12 63.03V54.44H341.92V55.45H337.27V58.11H341.3V59.13H337.27V63.03H336.12Z" fill="white"></path><path fill-rule="evenodd" clip-rule="evenodd" d="M343.56 63.03V61.83H344.76V63.03H343.56ZM343.56 58.01V56.81H344.76V58.01H343.56Z" fill="white"></path><path fill-rule="evenodd" clip-rule="evenodd" d="M349.49 60.6L350.52 60.46C350.55 61.12 350.67 61.57 350.89 61.81C351.11 62.05 351.41 62.17 351.8 62.17C352.09 62.17 352.33 62.11 352.54 61.98C352.75 61.85 352.89 61.67 352.97 61.45C353.05 61.22 353.09 60.86 353.09 60.37V54.45H354.23V60.31C354.23 61.03 354.14 61.59 353.97 61.98C353.8 62.38 353.52 62.68 353.14 62.89C352.77 63.1 352.33 63.2 351.82 63.2C351.06 63.2 350.48 62.98 350.08 62.55C349.68 62.11 349.49 61.47 349.5 60.62L349.49 60.6Z" fill="white"></path><path d="M358.77 59.39H355.53V60.45H358.77V59.39Z" fill="white"></path><path fill-rule="evenodd" clip-rule="evenodd" d="M360.73 58.79C360.73 60.2 360.89 61.14 361.22 61.61C361.55 62.07 361.96 62.31 362.44 62.31C362.92 62.31 363.33 62.08 363.66 61.61C363.99 61.14 364.16 60.2 364.16 58.79C364.16 57.38 363.99 56.43 363.66 55.97C363.33 55.51 362.92 55.27 362.43 55.27C361.94 55.27 361.56 55.48 361.27 55.89C360.91 56.41 360.73 57.38 360.73 58.79ZM359.65 58.79C359.65 57.77 359.75 56.96 359.96 56.34C360.17 55.72 360.48 55.24 360.89 54.91C361.3 54.57 361.82 54.41 362.45 54.41C362.91 54.41 363.32 54.51 363.67 54.69C364.02 54.88 364.31 55.14 364.53 55.5C364.76 55.85 364.94 56.27 365.06 56.78C365.19 57.28 365.25 57.96 365.25 58.81C365.25 59.82 365.15 60.63 364.94 61.26C364.73 61.88 364.42 62.36 364.01 62.69C363.6 63.03 363.08 63.19 362.45 63.19C361.62 63.19 360.97 62.9 360.5 62.3C359.93 61.58 359.65 60.42 359.65 58.81V58.79Z" fill="white"></path><path fill-rule="evenodd" clip-rule="evenodd" d="M367.4 58.79C367.4 60.2 367.56 61.14 367.89 61.61C368.22 62.07 368.63 62.31 369.11 62.31C369.59 62.31 370 62.08 370.33 61.61C370.66 61.14 370.83 60.2 370.83 58.79C370.83 57.38 370.66 56.43 370.33 55.97C370 55.51 369.59 55.27 369.1 55.27C368.61 55.27 368.23 55.48 367.94 55.89C367.58 56.41 367.4 57.38 367.4 58.79ZM366.32 58.79C366.32 57.77 366.42 56.96 366.63 56.34C366.84 55.72 367.15 55.24 367.56 54.91C367.97 54.57 368.49 54.41 369.12 54.41C369.58 54.41 369.99 54.51 370.34 54.69C370.69 54.88 370.98 55.14 371.2 55.5C371.43 55.85 371.6 56.27 371.73 56.78C371.86 57.28 371.92 57.96 371.92 58.81C371.92 59.82 371.81 60.63 371.61 61.26C371.4 61.88 371.09 62.36 370.68 62.69C370.27 63.03 369.75 63.19 369.12 63.19C368.29 63.19 367.64 62.9 367.17 62.3C366.6 61.58 366.32 60.42 366.32 58.81V58.79Z" fill="white"></path><path fill-rule="evenodd" clip-rule="evenodd" d="M374.08 58.79C374.08 60.2 374.24 61.14 374.57 61.61C374.9 62.07 375.31 62.31 375.8 62.31C376.29 62.31 376.69 62.08 377.02 61.61C377.35 61.14 377.52 60.2 377.52 58.79C377.52 57.37 377.35 56.43 377.02 55.97C376.69 55.51 376.28 55.27 375.79 55.27C375.3 55.27 374.92 55.48 374.63 55.89C374.27 56.41 374.09 57.38 374.09 58.79H374.08ZM373 58.79C373 57.77 373.1 56.96 373.31 56.34C373.52 55.72 373.83 55.24 374.24 54.91C374.65 54.57 375.17 54.41 375.8 54.41C376.26 54.41 376.66 54.51 377.01 54.69C377.36 54.88 377.65 55.14 377.87 55.5C378.1 55.85 378.27 56.27 378.4 56.78C378.53 57.28 378.59 57.96 378.59 58.81C378.59 59.82 378.49 60.63 378.28 61.26C378.07 61.88 377.76 62.36 377.35 62.69C376.94 63.03 376.42 63.19 375.79 63.19C374.96 63.19 374.31 62.9 373.84 62.3C373.27 61.58 372.99 60.42 372.99 58.81L373 58.79Z" fill="white"></path><path fill-rule="evenodd" clip-rule="evenodd" d="M380.75 58.79C380.75 60.2 380.91 61.14 381.24 61.61C381.57 62.07 381.98 62.31 382.47 62.31C382.96 62.31 383.36 62.08 383.69 61.61C384.02 61.14 384.19 60.2 384.19 58.79C384.19 57.38 384.02 56.43 383.69 55.97C383.36 55.51 382.95 55.27 382.46 55.27C381.97 55.27 381.59 55.48 381.3 55.89C380.94 56.41 380.76 57.38 380.76 58.79H380.75ZM379.66 58.79C379.66 57.77 379.77 56.96 379.97 56.34C380.18 55.72 380.49 55.24 380.9 54.91C381.31 54.57 381.83 54.41 382.46 54.41C382.92 54.41 383.32 54.51 383.67 54.69C384.02 54.88 384.31 55.14 384.53 55.5C384.76 55.85 384.94 56.27 385.06 56.78C385.19 57.28 385.25 57.96 385.25 58.81C385.25 59.82 385.15 60.63 384.94 61.26C384.73 61.88 384.42 62.36 384.01 62.69C383.6 63.03 383.08 63.19 382.45 63.19C381.62 63.19 380.97 62.9 380.5 62.3C379.93 61.58 379.65 60.42 379.65 58.81L379.66 58.79Z" fill="white"></path><path fill-rule="evenodd" clip-rule="evenodd" d="M391.89 62.02V63.03H386.21C386.21 62.78 386.24 62.53 386.33 62.3C386.47 61.91 386.7 61.53 387.02 61.16C387.34 60.79 387.8 60.35 388.4 59.86C389.33 59.09 389.97 58.49 390.29 58.04C390.62 57.59 390.78 57.17 390.78 56.77C390.78 56.35 390.63 56 390.33 55.72C390.03 55.43 389.65 55.28 389.17 55.28C388.66 55.28 388.26 55.43 387.95 55.74C387.64 56.04 387.49 56.46 387.49 57L386.41 56.89C386.48 56.08 386.76 55.47 387.25 55.05C387.73 54.62 388.38 54.41 389.2 54.41C390.02 54.41 390.68 54.64 391.16 55.1C391.64 55.55 391.88 56.12 391.88 56.8C391.88 57.14 391.81 57.48 391.67 57.82C391.53 58.15 391.29 58.5 390.97 58.87C390.65 59.24 390.11 59.74 389.35 60.38C388.71 60.92 388.31 61.27 388.13 61.47C387.95 61.66 387.8 61.85 387.69 62.04H391.91L391.89 62.02Z" fill="white"></path><path fill-rule="evenodd" clip-rule="evenodd" d="M397.5 57.25C397.5 56.65 397.34 56.16 397.01 55.81C396.69 55.46 396.31 55.28 395.85 55.28C395.39 55.28 394.97 55.47 394.63 55.86C394.28 56.24 394.11 56.74 394.11 57.35C394.11 57.9 394.27 58.34 394.6 58.69C394.93 59.03 395.34 59.2 395.82 59.2C396.3 59.2 396.71 59.03 397.02 58.69C397.34 58.35 397.49 57.87 397.49 57.26L397.5 57.25ZM393.18 61.05L394.19 60.95C394.28 61.43 394.44 61.77 394.69 61.99C394.93 62.2 395.24 62.31 395.62 62.31C395.95 62.31 396.23 62.23 396.47 62.09C396.72 61.94 396.92 61.74 397.07 61.5C397.22 61.25 397.36 60.91 397.46 60.49C397.57 60.07 397.62 59.64 397.62 59.2C397.62 59.15 397.62 59.08 397.62 58.99C397.41 59.33 397.12 59.6 396.75 59.81C396.38 60.02 395.99 60.12 395.57 60.12C394.86 60.12 394.26 59.87 393.76 59.35C393.27 58.84 393.02 58.15 393.02 57.31C393.02 56.47 393.27 55.74 393.79 55.2C394.3 54.67 394.95 54.4 395.72 54.4C396.28 54.4 396.79 54.55 397.25 54.85C397.71 55.15 398.07 55.58 398.31 56.14C398.55 56.69 398.67 57.5 398.67 58.56C398.67 59.62 398.55 60.53 398.31 61.19C398.07 61.84 397.71 62.33 397.24 62.67C396.77 63.01 396.22 63.18 395.59 63.18C394.92 63.18 394.37 62.99 393.95 62.62C393.52 62.25 393.27 61.72 393.18 61.05Z" fill="white"></path><path fill-rule="evenodd" clip-rule="evenodd" d="M399.7 60.78L400.8 60.68C400.88 61.22 401.07 61.63 401.37 61.9C401.67 62.17 402.03 62.31 402.45 62.31C402.96 62.31 403.39 62.12 403.74 61.74C404.09 61.36 404.27 60.85 404.27 60.21C404.27 59.61 404.1 59.14 403.76 58.79C403.42 58.44 402.98 58.27 402.44 58.27C402.1 58.27 401.8 58.35 401.52 58.5C401.24 58.65 401.03 58.85 400.87 59.1L399.88 58.97L400.71 54.56H404.98V55.57H401.55L401.09 57.88C401.61 57.52 402.15 57.34 402.72 57.34C403.47 57.34 404.1 57.6 404.62 58.12C405.14 58.64 405.39 59.31 405.39 60.12C405.39 60.93 405.16 61.57 404.71 62.14C404.16 62.84 403.41 63.19 402.45 63.19C401.67 63.19 401.03 62.97 400.54 62.53C400.05 62.09 399.77 61.51 399.7 60.79V60.78Z" fill="white"></path><path fill-rule="evenodd" clip-rule="evenodd" d="M407.46 58.79C407.46 60.2 407.63 61.14 407.95 61.61C408.28 62.07 408.69 62.31 409.17 62.31C409.65 62.31 410.06 62.08 410.39 61.61C410.72 61.14 410.89 60.2 410.89 58.79C410.89 57.38 410.72 56.43 410.39 55.97C410.06 55.51 409.65 55.27 409.16 55.27C408.67 55.27 408.29 55.48 408 55.89C407.63 56.41 407.45 57.38 407.45 58.79H407.46ZM406.38 58.79C406.38 57.77 406.48 56.96 406.69 56.34C406.9 55.72 407.21 55.24 407.62 54.91C408.03 54.57 408.55 54.41 409.17 54.41C409.63 54.41 410.04 54.51 410.39 54.69C410.74 54.88 411.02 55.14 411.25 55.5C411.48 55.85 411.65 56.27 411.78 56.78C411.91 57.28 411.97 57.96 411.97 58.81C411.97 59.82 411.87 60.63 411.66 61.26C411.45 61.88 411.14 62.36 410.73 62.69C410.32 63.03 409.8 63.19 409.17 63.19C408.34 63.19 407.69 62.9 407.22 62.3C406.65 61.58 406.37 60.42 406.37 58.81L406.38 58.79Z" fill="white"></path><path d="M416.17 59.39H412.93V60.45H416.17V59.39Z" fill="white"></path><path fill-rule="evenodd" clip-rule="evenodd" d="M420.43 60.01V56.14L417.74 60.01H420.43ZM420.43 63.03V60.97H416.7V60L420.62 54.43H421.48V60H422.64V60.97H421.48V63.03H420.42H420.43Z" fill="white"></path></g><defs><clipPath id="clip0_3_209"><rect width="422.65" height="62.59" fill="white" transform="translate(0 0.589996)"></rect></clipPath></defs></svg> 